<svg xmlns="http://www.w3.org/2000/svg" width="20.5" height="21" viewBox="0 0 20.5 21">
  <defs>
    <style>
      .cls-1 {
        fill: #2c2783;
        fill-rule: evenodd;
      }
    </style>
  </defs>
  <path id="Forma_1_copy_16" data-name="Forma 1 copy 16" class="cls-1" d="M1413.25,111.991a10.507,10.507,0,1,0,10.24,10.5A10.38,10.38,0,0,0,1413.25,111.991Zm-2.57,15.592h-2.56v-9.191h2.56v9.191Zm-1.2-9.755a1.232,1.232,0,1,1,1.2-1.231A1.217,1.217,0,0,1,1409.48,117.828Zm10.17,9.755h-2.56V121.9a0.916,0.916,0,0,0-.98-1.131,1.542,1.542,0,0,0-1.58,1.131v5.683h-2.56v-9.191h2.56v0.878a4.2,4.2,0,0,1,2.56-.877c0.83,0,2.56.51,2.56,3.587v5.6Z" transform="translate(-1403 -112)"/>
</svg>
