<svg xmlns="http://www.w3.org/2000/svg" width="32.094" height="32" viewBox="0 0 32.094 32">
  <defs>
    <style>
      .cls-1 {
        fill: #fff;
        fill-rule: evenodd;
      }
    </style>
  </defs>
  <path id="Forma_1" data-name="Forma 1" class="cls-1" d="M939.04,4867a16,16,0,1,0,16.039,16A16.018,16.018,0,0,0,939.04,4867Zm-4.01,23.75h-4.01v-14h4.01v14Zm-1.881-14.86a1.875,1.875,0,1,1,1.881-1.88A1.878,1.878,0,0,1,933.149,4875.89Zm15.915,14.86h-4.01v-8.66c0-1.01-.289-1.72-1.539-1.72a2.4,2.4,0,0,0-2.471,1.72v8.66h-4.009v-14h4.009v1.34a6.7,6.7,0,0,1,4.01-1.34c1.3,0,4.01.78,4.01,5.46v8.54Z" transform="translate(-923 -4867)"/>
</svg>
