<svg xmlns="http://www.w3.org/2000/svg" width="18.97" height="19" viewBox="0 0 18.97 19">
  <defs>
    <style>
      .cls-1 {
        fill: #2c2783;
        fill-rule: evenodd;
      }
    </style>
  </defs>
  <path id="Forma_1" data-name="Forma 1" class="cls-1" d="M1437.96,182.55h-0.88V186.1h-3.54v0.888h3.54v3.552h0.88v-3.552h3.54V186.1h-3.54V182.55Zm10.62,13.317-4.96-4.972a7.607,7.607,0,1,0-1.77,1.775l4.96,4.972a1.341,1.341,0,0,0,1.77,0h0A1.19,1.19,0,0,0,1448.58,195.867Zm-11.06-3.551a5.771,5.771,0,1,1,5.75-5.771A5.746,5.746,0,0,1,1437.52,192.316Z" transform="translate(-1430 -179)"/>
</svg>
