<svg xmlns="http://www.w3.org/2000/svg" width="20.5" height="21" viewBox="0 0 20.5 21">
  <defs>
    <style>
      .cls-1 {
        fill: #2c2783;
        fill-rule: evenodd;
      }
    </style>
  </defs>
  <path id="Forma_1_copy_15" data-name="Forma 1 copy 15" class="cls-1" d="M1438.75,111.991A10.507,10.507,0,1,0,1449,122.5,10.38,10.38,0,0,0,1438.75,111.991Zm5.2,11.641c0.47,0.478.98,0.927,1.41,1.455a3.8,3.8,0,0,1,.5.746,0.536,0.536,0,0,1-.32.835h-2.09a1.594,1.594,0,0,1-1.34-.558c-0.29-.3-0.56-0.626-0.84-0.939a2.371,2.371,0,0,0-.38-0.345,0.435,0.435,0,0,0-.7.174,2.315,2.315,0,0,0-.22,1,0.563,0.563,0,0,1-.67.664,5.24,5.24,0,0,1-3-.662,6.573,6.573,0,0,1-2.02-1.94,25.607,25.607,0,0,1-2.66-4.863c-0.17-.382-0.05-0.588.36-0.595,0.69-.014,1.37-0.012,2.06,0a0.606,0.606,0,0,1,.57.438,13.144,13.144,0,0,0,1.39,2.646,2.241,2.241,0,0,0,.53.593,0.314,0.314,0,0,0,.54-0.164,1.528,1.528,0,0,0,.12-0.555,8.435,8.435,0,0,0-.03-1.945,0.8,0.8,0,0,0-.67-0.743c-0.21-.039-0.18-0.115-0.08-0.232a0.756,0.756,0,0,1,.65-0.328h2.37a0.579,0.579,0,0,1,.51.633v2.7a0.781,0.781,0,0,0,.33.69,0.474,0.474,0,0,0,.48-0.238,8.267,8.267,0,0,0,1.33-2.1c0.16-.334.3-0.679,0.44-1.024a0.5,0.5,0,0,1,.53-0.377l2.29,0a1.176,1.176,0,0,1,.2.012,0.406,0.406,0,0,1,.37.622,5.84,5.84,0,0,1-.91,1.614c-0.38.541-.79,1.062-1.16,1.606A0.743,0.743,0,0,0,1443.95,123.632Z" transform="translate(-1428.5 -112)"/>
</svg>
