<svg xmlns="http://www.w3.org/2000/svg" width="32.062" height="32" viewBox="0 0 32.062 32">
  <defs>
    <style>
      .cls-1 {
        fill: #fff;
        fill-rule: evenodd;
      }
    </style>
  </defs>
  <path id="Forma_1" data-name="Forma 1" class="cls-1" d="M978.961,4867A16,16,0,1,0,995,4883,16.017,16.017,0,0,0,978.961,4867Zm8.135,17.73a29.485,29.485,0,0,1,2.21,2.22,6.212,6.212,0,0,1,.791,1.13,0.823,0.823,0,0,1-.5,1.28l-3.285-.01a2.54,2.54,0,0,1-2.094-.85c-0.454-.46-0.876-0.95-1.314-1.43a3.054,3.054,0,0,0-.591-0.52,0.69,0.69,0,0,0-1.094.26,3.432,3.432,0,0,0-.346,1.53,0.867,0.867,0,0,1-1.047,1.01,8.45,8.45,0,0,1-4.7-1,10.39,10.39,0,0,1-3.164-2.96,39.347,39.347,0,0,1-4.165-7.41c-0.263-.58-0.071-0.89.575-0.9q1.608-.03,3.217,0a0.932,0.932,0,0,1,.893.66,19.81,19.81,0,0,0,2.18,4.03,3.445,3.445,0,0,0,.825.91,0.5,0.5,0,0,0,.85-0.25,2.759,2.759,0,0,0,.189-0.85,12.575,12.575,0,0,0-.052-2.96,1.228,1.228,0,0,0-1.055-1.13c-0.314-.06-0.268-0.18-0.116-0.36a1.181,1.181,0,0,1,1.009-.5h3.713a0.89,0.89,0,0,1,.795.97l0,4.11a1.194,1.194,0,0,0,.524,1.05,0.72,0.72,0,0,0,.741-0.36,12.746,12.746,0,0,0,2.092-3.2c0.251-.51.467-1.04,0.677-1.56a0.8,0.8,0,0,1,.84-0.58l3.574,0.01c0.106,0,.213,0,0.317.01a0.622,0.622,0,0,1,.581.95,8.892,8.892,0,0,1-1.421,2.46c-0.6.82-1.234,1.62-1.825,2.45A1.112,1.112,0,0,0,987.1,4884.73Z" transform="translate(-962.938 -4867)"/>
</svg>
